# xmcd
#
# Track frame offsets: 
#        150
#        14318
#        26162
#        38467
#        50973
#        66069
#        77651
#        89643
#        102695
#        116789
#        129105
#        147244
#        158488
#        186800
#        197928
#        213723
#        236039
#        260426
#        281015
#        296662
#
# Disc length: 4171 seconds
#
# Revision: 1
# Processed by: cddbd v1.5.2PL0 Copyright (c) Steve Scherf et al.
# Submitted via: ExactAudioCopyFreeDBPlugin 1.0
#
DISCID=30104914
DTITLE=The Johnny Otis Show - Cold Shot and Snatch and the Poontangs
DYEAR=2002
DGENRE=Risqué
TTITLE0=The Signifyin' Monkey, Part 1
TTITLE1=Country Girl
TTITLE2=I Believe I'll Go Back Home
TTITLE3=High Heel Sneakers
TTITLE4=Sittin' Here Alone
TTITLE5=C.C. Rider
TTITLE6=You Better Look Out
TTITLE7=Goin' Back to LA
TTITLE8=Bye Bye Baby (Until We Meet Again)
TTITLE9=Cold Shot
TTITLE10=The Signifyin' Monkey, Part 2
TTITLE11=That's Life
TTITLE12=The Great Stack A Lee
TTITLE13=The Pissed-Off Cowboy
TTITLE14=Hey Shine
TTITLE15=Two Time Slim
TTITLE16=Big John Jeeter
TTITLE17=Two Girls in Love (With Each Other)
TTITLE18=It's Good to Be Free
TTITLE19=The Dirty Dozens
EXTD=
EXTT0=
EXTT1=
EXTT2=
EXTT3=
EXTT4=
EXTT5=
EXTT6=
EXTT7=
EXTT8=
EXTT9=
EXTT10=
EXTT11=
EXTT12=
EXTT13=
EXTT14=
EXTT15=
EXTT16=
EXTT17=
EXTT18=
EXTT19=
PLAYORDER=
